<?xml version="1.0" encoding="utf-8"?>
<!-- Generator: Adobe Illustrator 23.0.2, SVG Export Plug-In . SVG Version: 6.00 Build 0)  -->
<svg version="1.1" id="Layer_1" xmlns="http://www.w3.org/2000/svg" xmlns:xlink="http://www.w3.org/1999/xlink" x="0px" y="0px"
	 viewBox="0 0 150 150" style="enable-background:new 0 0 150 150;" xml:space="preserve">
<style type="text/css">
	.st0{fill:#FFFFFF;}
	.st1{fill:#6FC497;}
</style>
<rect class="st0" width="150" height="150"/>
<g>
	<path class="st1" d="M44.11,66.93H41.9l-1.3,2.31h2.61l2.51,3.11L34.18,88.28l-4.81-6.92L41.8,63.22l-4.01-5.21h-9.77h-9.77
		l-4.01,5.21l12.43,18.14l-4.81,6.92L10.33,72.34l2.51-3.11h2.61l-1.3-2.31h-2.21l-4.11,5.21l13.93,19.85l6.26-9.12l6.26,9.12
		l13.93-19.85L44.11,66.93z M16.64,63.52l2.51-3.41h8.87h8.87l2.51,3.41L28.02,79.46L16.64,63.52z"/>
	<g>
		<g>
			<path d="M70.08,63.34h1.55c-0.97,2.3-1.94,4.58-2.9,6.85c-0.96,2.27-1.93,4.55-2.9,6.85l-3.31-7.8
				c-0.02-0.11-0.06-0.22-0.09-0.33c-0.04-0.11-0.07-0.21-0.09-0.33c-0.17,0.7-0.4,1.41-0.67,2.12c-0.27,0.72-0.57,1.43-0.9,2.14
				c-0.32,0.71-0.65,1.42-0.98,2.12c-0.33,0.7-0.64,1.39-0.93,2.07c-0.97-2.3-1.94-4.58-2.9-6.85c-0.96-2.27-1.93-4.55-2.9-6.85
				h1.55c0.69,1.62,1.37,3.23,2.04,4.82s1.35,3.2,2.04,4.82l0.17,0.62c0.15-0.56,0.33-1.12,0.55-1.67s0.45-1.11,0.69-1.67
				c0.24-0.55,0.49-1.11,0.75-1.66c0.26-0.55,0.5-1.09,0.72-1.63c-0.25-0.61-0.51-1.22-0.77-1.81c-0.26-0.6-0.52-1.2-0.77-1.82h1.55
				c0.69,1.62,1.37,3.23,2.04,4.82c0.67,1.59,1.35,3.2,2.04,4.82l0.17,0.62L66,72.98c0.69-1.62,1.37-3.23,2.04-4.82
				C68.72,66.57,69.4,64.96,70.08,63.34z"/>
			<path d="M74.31,62.41h1.55v7.97l-0.06,0.84c0.27-0.61,0.67-1.08,1.2-1.41c0.52-0.33,1.14-0.52,1.85-0.55
				c0.74,0,1.32,0.19,1.74,0.58c0.42,0.39,0.65,0.89,0.67,1.52v5.09h-1.55v-4.38c-0.03-0.34-0.15-0.63-0.36-0.87
				c-0.22-0.24-0.56-0.38-1.04-0.4c-0.32,0-0.63,0.06-0.93,0.17c-0.29,0.11-0.55,0.27-0.78,0.47c-0.22,0.2-0.41,0.44-0.54,0.71
				c-0.14,0.27-0.21,0.57-0.21,0.9v3.4h-1.55V62.41z"/>
			<path d="M83.52,66.71c0-0.29,0.1-0.52,0.3-0.71c0.2-0.19,0.42-0.28,0.67-0.28c0.24,0,0.46,0.09,0.65,0.28
				c0.2,0.19,0.3,0.42,0.3,0.71c0,0.29-0.1,0.52-0.3,0.7c-0.2,0.18-0.42,0.27-0.65,0.27c-0.25,0-0.47-0.09-0.67-0.27
				C83.62,67.23,83.52,67,83.52,66.71z M85.24,76.44h-1.55v-7.02h1.55V76.44z"/>
			<path d="M88.36,64.86h1.55v4.4h1.83v1.52h-1.83v5.67h-1.55v-5.67h-1.57v-1.52h1.57V64.86z"/>
			<path d="M99.66,72.36c-0.85,0.31-1.69,0.62-2.54,0.94c-0.84,0.31-1.69,0.62-2.54,0.94c0.19,0.26,0.43,0.47,0.74,0.63
				c0.31,0.16,0.65,0.23,1.04,0.23c0.57,0,1.05-0.2,1.42-0.6l0.95,1.12c-0.31,0.31-0.67,0.56-1.07,0.73
				c-0.4,0.17-0.84,0.26-1.31,0.26c-0.52,0-1.01-0.1-1.47-0.29c-0.46-0.19-0.85-0.46-1.19-0.79c-0.34-0.34-0.6-0.73-0.8-1.17
				c-0.19-0.44-0.29-0.92-0.29-1.43c0-0.5,0.1-0.97,0.29-1.42c0.19-0.45,0.46-0.84,0.8-1.17c0.34-0.33,0.73-0.59,1.19-0.79
				c0.45-0.19,0.94-0.29,1.47-0.29c0.39,0,0.76,0.08,1.11,0.23c0.36,0.16,0.67,0.37,0.95,0.65c0.28,0.27,0.53,0.6,0.74,0.98
				C99.39,71.5,99.55,71.91,99.66,72.36z M96.37,70.77c-0.5,0-0.93,0.12-1.29,0.37c-0.36,0.25-0.62,0.57-0.77,0.97
				c-0.06,0.19-0.11,0.41-0.13,0.65c0.59-0.21,1.17-0.43,1.75-0.64c0.58-0.22,1.16-0.43,1.75-0.65c-0.18-0.21-0.37-0.38-0.59-0.52
				C96.87,70.84,96.63,70.77,96.37,70.77z"/>
			<path d="M114.76,72.92c0,0.5-0.1,0.97-0.29,1.42c-0.19,0.45-0.46,0.84-0.8,1.18c-0.34,0.34-0.74,0.6-1.2,0.79
				c-0.46,0.19-0.95,0.29-1.48,0.29c-0.37,0-0.71-0.04-1-0.13c-0.29-0.09-0.54-0.18-0.74-0.29c-0.2-0.11-0.36-0.21-0.47-0.31
				c-0.11-0.1-0.17-0.17-0.17-0.21c0.02,0.06,0.06,0.13,0.09,0.21c0.04,0.08,0.07,0.14,0.09,0.21v5.03h-1.55V69.42h1.29
				c0,0.15,0.01,0.3,0.03,0.44c0.02,0.14,0.03,0.29,0.05,0.44c0-0.04,0.06-0.11,0.19-0.23c0.12-0.11,0.29-0.23,0.51-0.35
				c0.21-0.12,0.46-0.23,0.75-0.33c0.29-0.1,0.6-0.15,0.94-0.15c0.52,0,1.02,0.1,1.48,0.29c0.46,0.19,0.86,0.46,1.2,0.8
				c0.34,0.34,0.6,0.73,0.8,1.17C114.67,71.95,114.76,72.42,114.76,72.92z M113.19,72.92c0-0.62-0.2-1.14-0.61-1.54
				c-0.41-0.41-0.93-0.61-1.58-0.61c-0.65,0-1.18,0.2-1.58,0.61c-0.41,0.41-0.61,0.92-0.61,1.54c0,0.61,0.2,1.13,0.61,1.54
				c0.41,0.42,0.93,0.63,1.58,0.63c0.65,0,1.18-0.21,1.58-0.63C112.99,74.05,113.19,73.53,113.19,72.92z"/>
			<path d="M123.54,72.36c-0.85,0.31-1.69,0.62-2.54,0.94c-0.84,0.31-1.69,0.62-2.54,0.94c0.19,0.26,0.43,0.47,0.74,0.63
				c0.31,0.16,0.65,0.23,1.04,0.23c0.57,0,1.05-0.2,1.42-0.6l0.95,1.12c-0.31,0.31-0.67,0.56-1.07,0.73
				c-0.4,0.17-0.84,0.26-1.31,0.26c-0.52,0-1.01-0.1-1.47-0.29c-0.46-0.19-0.85-0.46-1.19-0.79c-0.34-0.34-0.6-0.73-0.8-1.17
				c-0.19-0.44-0.29-0.92-0.29-1.43c0-0.5,0.1-0.97,0.29-1.42c0.19-0.45,0.46-0.84,0.8-1.17c0.34-0.33,0.73-0.59,1.19-0.79
				c0.45-0.19,0.94-0.29,1.47-0.29c0.39,0,0.76,0.08,1.11,0.23c0.36,0.16,0.67,0.37,0.95,0.65c0.28,0.27,0.53,0.6,0.74,0.98
				C123.26,71.5,123.43,71.91,123.54,72.36z M120.25,70.77c-0.5,0-0.93,0.12-1.29,0.37c-0.36,0.25-0.62,0.57-0.77,0.97
				c-0.06,0.19-0.11,0.41-0.13,0.65c0.59-0.21,1.17-0.43,1.75-0.64c0.58-0.22,1.16-0.43,1.75-0.65c-0.18-0.21-0.37-0.38-0.59-0.52
				C120.75,70.84,120.51,70.77,120.25,70.77z"/>
			<path d="M124.72,72.94c0-0.49,0.1-0.95,0.29-1.4c0.19-0.45,0.46-0.84,0.79-1.18c0.34-0.34,0.74-0.6,1.2-0.8
				c0.46-0.2,0.95-0.3,1.48-0.3c0.34,0,0.65,0.05,0.94,0.15c0.29,0.1,0.54,0.21,0.75,0.33c0.21,0.12,0.38,0.23,0.51,0.35
				c0.12,0.11,0.19,0.19,0.19,0.23c0-0.14,0.01-0.28,0.04-0.43c0.02-0.15,0.04-0.3,0.04-0.45h1.29v7.02h-1.37v-0.6v-0.17
				c0,0.04-0.06,0.11-0.17,0.21c-0.11,0.1-0.27,0.2-0.47,0.31c-0.2,0.11-0.45,0.2-0.74,0.29c-0.29,0.09-0.63,0.13-1,0.13
				c-0.52,0-1.02-0.1-1.48-0.29c-0.46-0.19-0.86-0.46-1.2-0.79c-0.34-0.34-0.6-0.73-0.79-1.17
				C124.81,73.91,124.72,73.44,124.72,72.94z M126.29,72.92c0,0.61,0.2,1.13,0.61,1.54c0.4,0.42,0.93,0.63,1.58,0.63
				c0.65,0,1.18-0.21,1.58-0.63c0.4-0.42,0.61-0.93,0.61-1.54c0-0.62-0.2-1.14-0.61-1.54c-0.41-0.41-0.93-0.61-1.58-0.61
				c-0.65,0-1.18,0.2-1.58,0.61C126.49,71.78,126.29,72.3,126.29,72.92z"/>
			<path d="M138.96,70.79c-0.76,0-1.37,0.21-1.83,0.64c-0.46,0.42-0.69,0.96-0.69,1.61v3.4h-1.55v-7.02h1.37v0.17
				c0.02,0.3,0.05,0.57,0.07,0.81c0.02,0.24,0.04,0.52,0.07,0.81c0.15-0.31,0.34-0.59,0.57-0.83c0.23-0.24,0.47-0.45,0.73-0.62
				c0.26-0.17,0.51-0.3,0.75-0.38s0.46-0.13,0.65-0.13L138.96,70.79z"/>
			<path d="M142.18,76.44h-1.55V62.41h1.55V76.44z"/>
		</g>
		<g>
			<path d="M82.06,85.79c0-0.24,0.05-0.48,0.14-0.69c0.09-0.22,0.22-0.41,0.39-0.57c0.16-0.17,0.35-0.3,0.58-0.39
				c0.22-0.1,0.46-0.14,0.72-0.14c0.17,0,0.33,0.02,0.48,0.07c0.15,0.05,0.28,0.11,0.4,0.18c0.12,0.07,0.21,0.15,0.29,0.22
				c0.08,0.08,0.12,0.15,0.14,0.21c-0.01-0.06-0.02-0.12-0.03-0.17c-0.01-0.06-0.02-0.12-0.03-0.18v-3.69h0.57v6.89h-0.51v-0.36
				v-0.23c-0.02,0.06-0.06,0.13-0.13,0.21c-0.07,0.08-0.16,0.15-0.28,0.22c-0.11,0.07-0.25,0.12-0.4,0.17
				c-0.15,0.05-0.32,0.07-0.5,0.07c-0.26,0-0.5-0.05-0.72-0.14c-0.22-0.1-0.42-0.22-0.58-0.39c-0.16-0.17-0.29-0.36-0.39-0.57
				S82.06,86.04,82.06,85.79z M82.64,85.79c0,0.18,0.03,0.34,0.09,0.49c0.06,0.15,0.15,0.28,0.26,0.39c0.11,0.11,0.24,0.2,0.39,0.26
				c0.15,0.06,0.32,0.1,0.51,0.1c0.18,0,0.34-0.03,0.5-0.1c0.15-0.06,0.28-0.15,0.39-0.26c0.11-0.11,0.2-0.24,0.26-0.39
				c0.06-0.15,0.1-0.31,0.1-0.49c0-0.17-0.03-0.33-0.1-0.49c-0.06-0.15-0.15-0.28-0.26-0.39c-0.11-0.11-0.24-0.2-0.39-0.26
				c-0.15-0.06-0.32-0.1-0.5-0.1c-0.18,0-0.35,0.03-0.51,0.1c-0.15,0.06-0.28,0.15-0.39,0.26c-0.11,0.11-0.2,0.24-0.26,0.39
				C82.67,85.46,82.64,85.62,82.64,85.79z"/>
			<path d="M86.94,82.8c0-0.11,0.04-0.2,0.12-0.28c0.08-0.08,0.17-0.11,0.28-0.11c0.09,0,0.18,0.04,0.26,0.11
				c0.08,0.08,0.12,0.17,0.12,0.28c0,0.12-0.04,0.21-0.12,0.28c-0.08,0.07-0.17,0.11-0.26,0.11c-0.1,0-0.2-0.04-0.28-0.11
				C86.98,83.01,86.94,82.92,86.94,82.8z M87.61,87.52h-0.58v-3.44h0.58V87.52z"/>
			<path d="M88.66,85.8c0-0.24,0.05-0.48,0.14-0.69c0.09-0.22,0.22-0.41,0.39-0.57c0.16-0.17,0.35-0.3,0.58-0.4
				c0.22-0.1,0.46-0.15,0.72-0.15c0.17,0,0.33,0.02,0.48,0.07c0.15,0.05,0.28,0.11,0.4,0.18s0.21,0.15,0.29,0.23
				c0.08,0.08,0.12,0.15,0.14,0.21c0-0.1,0-0.2,0.01-0.3c0.01-0.1,0.02-0.21,0.02-0.31h0.47v3.44H91.8v-0.36v-0.23
				c-0.02,0.06-0.06,0.13-0.13,0.21c-0.07,0.08-0.16,0.15-0.28,0.22c-0.11,0.07-0.25,0.12-0.4,0.17c-0.15,0.05-0.32,0.07-0.51,0.07
				c-0.26,0-0.5-0.05-0.72-0.14c-0.22-0.1-0.42-0.22-0.58-0.39c-0.16-0.16-0.29-0.35-0.39-0.57C88.7,86.28,88.66,86.05,88.66,85.8z
				 M89.24,85.79c0,0.18,0.03,0.34,0.1,0.49c0.06,0.15,0.15,0.28,0.26,0.39c0.11,0.11,0.24,0.2,0.39,0.26
				c0.15,0.06,0.32,0.1,0.5,0.1c0.18,0,0.34-0.03,0.5-0.1c0.15-0.06,0.28-0.15,0.39-0.26c0.11-0.11,0.2-0.24,0.26-0.39
				c0.06-0.15,0.1-0.31,0.1-0.49c0-0.17-0.03-0.33-0.1-0.49c-0.06-0.15-0.15-0.28-0.26-0.39c-0.11-0.11-0.24-0.2-0.39-0.26
				c-0.15-0.06-0.32-0.1-0.5-0.1c-0.18,0-0.34,0.03-0.5,0.1c-0.15,0.06-0.28,0.15-0.39,0.26c-0.11,0.11-0.2,0.24-0.26,0.39
				C89.27,85.46,89.24,85.62,89.24,85.79z"/>
			<path d="M93.7,84.08h0.51v0.2c0.01,0.12,0.01,0.24,0.02,0.34c0.01,0.11,0.01,0.22,0.02,0.34c0.12-0.29,0.32-0.53,0.58-0.7
				c0.26-0.17,0.57-0.26,0.92-0.27c0.33,0,0.6,0.08,0.79,0.25c0.2,0.17,0.31,0.39,0.35,0.67c0.13-0.28,0.33-0.5,0.59-0.67
				c0.26-0.16,0.56-0.25,0.9-0.25c0.35,0,0.62,0.1,0.83,0.28c0.2,0.19,0.31,0.44,0.32,0.74v2.49h-0.57v-2.27
				c-0.01-0.18-0.08-0.33-0.2-0.47c-0.12-0.13-0.3-0.21-0.55-0.22c-0.17,0-0.34,0.03-0.49,0.09c-0.16,0.06-0.29,0.14-0.41,0.24
				c-0.12,0.1-0.22,0.23-0.29,0.37s-0.11,0.3-0.12,0.46v1.79h-0.57v-2.27c-0.01-0.18-0.08-0.33-0.2-0.47
				c-0.12-0.13-0.3-0.21-0.55-0.22c-0.17,0-0.34,0.03-0.5,0.09c-0.16,0.06-0.3,0.14-0.42,0.25c-0.12,0.1-0.21,0.23-0.28,0.37
				c-0.07,0.14-0.11,0.3-0.11,0.47v1.77H93.7V84.08z"/>
			<path d="M100.49,85.79c0-0.24,0.05-0.48,0.14-0.7c0.09-0.22,0.22-0.41,0.39-0.57c0.17-0.16,0.36-0.29,0.58-0.39
				c0.22-0.1,0.46-0.14,0.71-0.14c0.26,0,0.5,0.05,0.72,0.14c0.22,0.09,0.42,0.22,0.58,0.39c0.17,0.16,0.3,0.35,0.39,0.57
				c0.09,0.22,0.14,0.45,0.14,0.7c0,0.25-0.05,0.49-0.14,0.7c-0.1,0.22-0.23,0.41-0.39,0.57c-0.17,0.16-0.36,0.29-0.58,0.39
				c-0.22,0.09-0.46,0.14-0.72,0.14c-0.25,0-0.49-0.05-0.71-0.14c-0.22-0.1-0.41-0.22-0.58-0.39c-0.17-0.16-0.3-0.35-0.39-0.57
				C100.54,86.28,100.49,86.04,100.49,85.79z M101.06,85.8c0,0.17,0.03,0.33,0.1,0.48c0.06,0.15,0.15,0.28,0.27,0.39
				c0.11,0.11,0.24,0.2,0.4,0.26c0.15,0.06,0.31,0.1,0.48,0.1c0.17,0,0.33-0.03,0.48-0.1c0.15-0.06,0.28-0.15,0.39-0.26
				c0.11-0.11,0.2-0.24,0.27-0.39c0.06-0.15,0.1-0.31,0.1-0.48c0-0.17-0.03-0.33-0.1-0.49c-0.06-0.15-0.15-0.29-0.27-0.4
				c-0.11-0.11-0.24-0.2-0.39-0.27c-0.15-0.06-0.31-0.1-0.48-0.1c-0.17,0-0.33,0.03-0.48,0.1c-0.15,0.06-0.28,0.15-0.4,0.27
				c-0.11,0.11-0.2,0.25-0.27,0.4C101.1,85.47,101.06,85.63,101.06,85.8z"/>
			<path d="M105.35,84.08h0.51v0.2c0.01,0.12,0.01,0.24,0.02,0.34c0.01,0.11,0.01,0.22,0.02,0.34c0.12-0.29,0.32-0.53,0.59-0.7
				c0.27-0.17,0.57-0.26,0.91-0.26c0.35,0,0.62,0.1,0.83,0.28c0.2,0.19,0.31,0.44,0.32,0.74v2.49h-0.57v-2.27
				c-0.01-0.18-0.08-0.33-0.2-0.47c-0.12-0.13-0.3-0.21-0.55-0.22c-0.17,0-0.34,0.03-0.5,0.09c-0.16,0.06-0.3,0.14-0.42,0.25
				c-0.12,0.1-0.21,0.23-0.28,0.37c-0.07,0.14-0.11,0.3-0.11,0.47v1.77h-0.58V84.08z"/>
			<path d="M109.52,85.79c0-0.24,0.05-0.48,0.14-0.69c0.09-0.22,0.22-0.41,0.39-0.57c0.16-0.17,0.35-0.3,0.58-0.39
				c0.22-0.1,0.46-0.14,0.72-0.14c0.17,0,0.33,0.02,0.48,0.07c0.15,0.05,0.28,0.11,0.4,0.18s0.21,0.15,0.29,0.22
				c0.08,0.08,0.12,0.15,0.14,0.21c-0.01-0.06-0.02-0.12-0.03-0.17c-0.01-0.06-0.02-0.12-0.03-0.18v-3.69h0.57v6.89h-0.51v-0.36
				v-0.23c-0.02,0.06-0.06,0.13-0.13,0.21c-0.07,0.08-0.16,0.15-0.28,0.22c-0.11,0.07-0.25,0.12-0.4,0.17
				c-0.15,0.05-0.32,0.07-0.51,0.07c-0.26,0-0.5-0.05-0.72-0.14c-0.22-0.1-0.42-0.22-0.58-0.39c-0.16-0.17-0.29-0.36-0.39-0.57
				C109.57,86.27,109.52,86.04,109.52,85.79z M110.1,85.79c0,0.18,0.03,0.34,0.09,0.49c0.06,0.15,0.15,0.28,0.26,0.39
				c0.11,0.11,0.24,0.2,0.39,0.26c0.15,0.06,0.32,0.1,0.51,0.1c0.18,0,0.34-0.03,0.5-0.1c0.15-0.06,0.28-0.15,0.39-0.26
				c0.11-0.11,0.2-0.24,0.26-0.39c0.06-0.15,0.1-0.31,0.1-0.49c0-0.17-0.03-0.33-0.1-0.49c-0.06-0.15-0.15-0.28-0.26-0.39
				c-0.11-0.11-0.24-0.2-0.39-0.26c-0.15-0.06-0.32-0.1-0.5-0.1c-0.18,0-0.35,0.03-0.51,0.1c-0.15,0.06-0.28,0.15-0.39,0.26
				c-0.11,0.11-0.2,0.24-0.26,0.39C110.13,85.46,110.1,85.62,110.1,85.79z"/>
		</g>
	</g>
</g>
</svg>
