<?xml version="1.0" encoding="UTF-8" standalone="no"?>
<!-- Generator: Adobe Illustrator 23.0.2, SVG Export Plug-In . SVG Version: 6.00 Build 0)  -->

<svg
   version="1.1"
   id="Layer_1"
   x="0px"
   y="0px"
   viewBox="0 0 150 150"
   style="enable-background:new 0 0 150 150;"
   xml:space="preserve"
   sodipodi:docname="WP 150x150.svg"
   inkscape:version="1.1 (c68e22c387, 2021-05-23)"
   xmlns:inkscape="http://www.inkscape.org/namespaces/inkscape"
   xmlns:sodipodi="http://sodipodi.sourceforge.net/DTD/sodipodi-0.dtd"
   xmlns="http://www.w3.org/2000/svg"
   xmlns:svg="http://www.w3.org/2000/svg"><defs
   id="defs628" /><sodipodi:namedview
   id="namedview626"
   pagecolor="#ffffff"
   bordercolor="#666666"
   borderopacity="1.0"
   inkscape:pageshadow="2"
   inkscape:pageopacity="0.0"
   inkscape:pagecheckerboard="0"
   showgrid="false"
   inkscape:zoom="4.3466667"
   inkscape:cx="41.296012"
   inkscape:cy="111.92485"
   inkscape:window-width="1600"
   inkscape:window-height="837"
   inkscape:window-x="-8"
   inkscape:window-y="-8"
   inkscape:window-maximized="1"
   inkscape:current-layer="Layer_1" />
<style
   type="text/css"
   id="style577">
	.st0{fill:#FFFFFF;}
	.st1{fill:#6FC497;}
</style>
<rect
   class="st0"
   width="150"
   height="40"
   id="rect579"
   x="0"
   y="53.77689"
   style="stroke-width:0.516398" />
<g
   id="g623"
   transform="translate(-0.005,-1.2181102)">
	<path
   class="st1"
   d="M 44.11,66.93 H 41.9 l -1.3,2.31 h 2.61 L 45.72,72.35 34.18,88.28 29.37,81.36 41.8,63.22 37.79,58.01 h -9.77 -9.77 l -4.01,5.21 12.43,18.14 -4.81,6.92 -11.53,-15.94 2.51,-3.11 h 2.61 l -1.3,-2.31 h -2.21 l -4.11,5.21 13.93,19.85 6.26,-9.12 6.26,9.12 13.93,-19.85 z m -27.47,-3.41 2.51,-3.41 h 8.87 8.87 l 2.51,3.41 -11.38,15.94 z"
   id="path581" />
	<g
   id="g621">
		<g
   id="g603">
			<path
   d="m 70.08,63.34 h 1.55 c -0.97,2.3 -1.94,4.58 -2.9,6.85 -0.96,2.27 -1.93,4.55 -2.9,6.85 l -3.31,-7.8 C 62.5,69.13 62.46,69.02 62.43,68.91 62.39,68.8 62.36,68.7 62.34,68.58 c -0.17,0.7 -0.4,1.41 -0.67,2.12 -0.27,0.72 -0.57,1.43 -0.9,2.14 -0.32,0.71 -0.65,1.42 -0.98,2.12 -0.33,0.7 -0.64,1.39 -0.93,2.07 -0.97,-2.3 -1.94,-4.58 -2.9,-6.85 -0.96,-2.27 -1.93,-4.55 -2.9,-6.85 h 1.55 c 0.69,1.62 1.37,3.23 2.04,4.82 0.67,1.59 1.35,3.2 2.04,4.82 l 0.17,0.62 c 0.15,-0.56 0.33,-1.12 0.55,-1.67 0.22,-0.55 0.45,-1.11 0.69,-1.67 0.24,-0.55 0.49,-1.11 0.75,-1.66 0.26,-0.55 0.5,-1.09 0.72,-1.63 -0.25,-0.61 -0.51,-1.22 -0.77,-1.81 -0.26,-0.6 -0.52,-1.2 -0.77,-1.82 h 1.55 c 0.69,1.62 1.37,3.23 2.04,4.82 0.67,1.59 1.35,3.2 2.04,4.82 l 0.17,0.62 0.17,-0.61 c 0.69,-1.62 1.37,-3.23 2.04,-4.82 0.68,-1.59 1.36,-3.2 2.04,-4.82 z"
   id="path583" />
			<path
   d="m 74.31,62.41 h 1.55 v 7.97 l -0.06,0.84 c 0.27,-0.61 0.67,-1.08 1.2,-1.41 0.52,-0.33 1.14,-0.52 1.85,-0.55 0.74,0 1.32,0.19 1.74,0.58 0.42,0.39 0.65,0.89 0.67,1.52 v 5.09 h -1.55 v -4.38 c -0.03,-0.34 -0.15,-0.63 -0.36,-0.87 -0.22,-0.24 -0.56,-0.38 -1.04,-0.4 -0.32,0 -0.63,0.06 -0.93,0.17 -0.29,0.11 -0.55,0.27 -0.78,0.47 -0.22,0.2 -0.41,0.44 -0.54,0.71 -0.14,0.27 -0.21,0.57 -0.21,0.9 v 3.4 H 74.3 V 62.41 Z"
   id="path585" />
			<path
   d="m 83.52,66.71 c 0,-0.29 0.1,-0.52 0.3,-0.71 0.2,-0.19 0.42,-0.28 0.67,-0.28 0.24,0 0.46,0.09 0.65,0.28 0.2,0.19 0.3,0.42 0.3,0.71 0,0.29 -0.1,0.52 -0.3,0.7 -0.2,0.18 -0.42,0.27 -0.65,0.27 -0.25,0 -0.47,-0.09 -0.67,-0.27 -0.2,-0.18 -0.3,-0.41 -0.3,-0.7 z m 1.72,9.73 h -1.55 v -7.02 h 1.55 z"
   id="path587" />
			<path
   d="m 88.36,64.86 h 1.55 v 4.4 h 1.83 v 1.52 h -1.83 v 5.67 h -1.55 v -5.67 h -1.57 v -1.52 h 1.57 z"
   id="path589" />
			<path
   d="m 99.66,72.36 c -0.85,0.31 -1.69,0.62 -2.54,0.94 -0.84,0.31 -1.69,0.62 -2.54,0.94 0.19,0.26 0.43,0.47 0.74,0.63 0.31,0.16 0.65,0.23 1.04,0.23 0.57,0 1.05,-0.2 1.42,-0.6 l 0.95,1.12 c -0.31,0.31 -0.67,0.56 -1.07,0.73 -0.4,0.17 -0.84,0.26 -1.31,0.26 -0.52,0 -1.01,-0.1 -1.47,-0.29 -0.46,-0.19 -0.85,-0.46 -1.19,-0.79 -0.34,-0.34 -0.6,-0.73 -0.8,-1.17 -0.19,-0.44 -0.29,-0.92 -0.29,-1.43 0,-0.5 0.1,-0.97 0.29,-1.42 0.19,-0.45 0.46,-0.84 0.8,-1.17 0.34,-0.33 0.73,-0.59 1.19,-0.79 0.45,-0.19 0.94,-0.29 1.47,-0.29 0.39,0 0.76,0.08 1.11,0.23 0.36,0.16 0.67,0.37 0.95,0.65 0.28,0.27 0.53,0.6 0.74,0.98 0.24,0.38 0.4,0.79 0.51,1.24 z m -3.29,-1.59 c -0.5,0 -0.93,0.12 -1.29,0.37 -0.36,0.25 -0.62,0.57 -0.77,0.97 -0.06,0.19 -0.11,0.41 -0.13,0.65 0.59,-0.21 1.17,-0.43 1.75,-0.64 0.58,-0.22 1.16,-0.43 1.75,-0.65 -0.18,-0.21 -0.37,-0.38 -0.59,-0.52 -0.22,-0.11 -0.46,-0.18 -0.72,-0.18 z"
   id="path591" />
			<path
   d="m 114.76,72.92 c 0,0.5 -0.1,0.97 -0.29,1.42 -0.19,0.45 -0.46,0.84 -0.8,1.18 -0.34,0.34 -0.74,0.6 -1.2,0.79 -0.46,0.19 -0.95,0.29 -1.48,0.29 -0.37,0 -0.71,-0.04 -1,-0.13 -0.29,-0.09 -0.54,-0.18 -0.74,-0.29 -0.2,-0.11 -0.36,-0.21 -0.47,-0.31 -0.11,-0.1 -0.17,-0.17 -0.17,-0.21 0.02,0.06 0.06,0.13 0.09,0.21 0.04,0.08 0.07,0.14 0.09,0.21 v 5.03 h -1.55 V 69.42 h 1.29 c 0,0.15 0.01,0.3 0.03,0.44 0.02,0.14 0.03,0.29 0.05,0.44 0,-0.04 0.06,-0.11 0.19,-0.23 0.12,-0.11 0.29,-0.23 0.51,-0.35 0.21,-0.12 0.46,-0.23 0.75,-0.33 0.29,-0.1 0.6,-0.15 0.94,-0.15 0.52,0 1.02,0.1 1.48,0.29 0.46,0.19 0.86,0.46 1.2,0.8 0.34,0.34 0.6,0.73 0.8,1.17 0.19,0.45 0.28,0.92 0.28,1.42 z m -1.57,0 c 0,-0.62 -0.2,-1.14 -0.61,-1.54 -0.41,-0.41 -0.93,-0.61 -1.58,-0.61 -0.65,0 -1.18,0.2 -1.58,0.61 -0.41,0.41 -0.61,0.92 -0.61,1.54 0,0.61 0.2,1.13 0.61,1.54 0.41,0.42 0.93,0.63 1.58,0.63 0.65,0 1.18,-0.21 1.58,-0.63 0.41,-0.41 0.61,-0.93 0.61,-1.54 z"
   id="path593" />
			<path
   d="m 123.54,72.36 c -0.85,0.31 -1.69,0.62 -2.54,0.94 -0.84,0.31 -1.69,0.62 -2.54,0.94 0.19,0.26 0.43,0.47 0.74,0.63 0.31,0.16 0.65,0.23 1.04,0.23 0.57,0 1.05,-0.2 1.42,-0.6 l 0.95,1.12 c -0.31,0.31 -0.67,0.56 -1.07,0.73 -0.4,0.17 -0.84,0.26 -1.31,0.26 -0.52,0 -1.01,-0.1 -1.47,-0.29 -0.46,-0.19 -0.85,-0.46 -1.19,-0.79 -0.34,-0.34 -0.6,-0.73 -0.8,-1.17 -0.19,-0.44 -0.29,-0.92 -0.29,-1.43 0,-0.5 0.1,-0.97 0.29,-1.42 0.19,-0.45 0.46,-0.84 0.8,-1.17 0.34,-0.33 0.73,-0.59 1.19,-0.79 0.45,-0.19 0.94,-0.29 1.47,-0.29 0.39,0 0.76,0.08 1.11,0.23 0.36,0.16 0.67,0.37 0.95,0.65 0.28,0.27 0.53,0.6 0.74,0.98 0.23,0.38 0.4,0.79 0.51,1.24 z m -3.29,-1.59 c -0.5,0 -0.93,0.12 -1.29,0.37 -0.36,0.25 -0.62,0.57 -0.77,0.97 -0.06,0.19 -0.11,0.41 -0.13,0.65 0.59,-0.21 1.17,-0.43 1.75,-0.64 0.58,-0.22 1.16,-0.43 1.75,-0.65 -0.18,-0.21 -0.37,-0.38 -0.59,-0.52 -0.22,-0.11 -0.46,-0.18 -0.72,-0.18 z"
   id="path595" />
			<path
   d="m 124.72,72.94 c 0,-0.49 0.1,-0.95 0.29,-1.4 0.19,-0.45 0.46,-0.84 0.79,-1.18 0.34,-0.34 0.74,-0.6 1.2,-0.8 0.46,-0.2 0.95,-0.3 1.48,-0.3 0.34,0 0.65,0.05 0.94,0.15 0.29,0.1 0.54,0.21 0.75,0.33 0.21,0.12 0.38,0.23 0.51,0.35 0.12,0.11 0.19,0.19 0.19,0.23 0,-0.14 0.01,-0.28 0.04,-0.43 0.02,-0.15 0.04,-0.3 0.04,-0.45 h 1.29 v 7.02 h -1.37 v -0.6 -0.17 c 0,0.04 -0.06,0.11 -0.17,0.21 -0.11,0.1 -0.27,0.2 -0.47,0.31 -0.2,0.11 -0.45,0.2 -0.74,0.29 -0.29,0.09 -0.63,0.13 -1,0.13 -0.52,0 -1.02,-0.1 -1.48,-0.29 -0.46,-0.19 -0.86,-0.46 -1.2,-0.79 -0.34,-0.34 -0.6,-0.73 -0.79,-1.17 -0.21,-0.47 -0.3,-0.94 -0.3,-1.44 z m 1.57,-0.02 c 0,0.61 0.2,1.13 0.61,1.54 0.4,0.42 0.93,0.63 1.58,0.63 0.65,0 1.18,-0.21 1.58,-0.63 0.4,-0.42 0.61,-0.93 0.61,-1.54 0,-0.62 -0.2,-1.14 -0.61,-1.54 -0.41,-0.41 -0.93,-0.61 -1.58,-0.61 -0.65,0 -1.18,0.2 -1.58,0.61 -0.41,0.4 -0.61,0.92 -0.61,1.54 z"
   id="path597" />
			<path
   d="m 138.96,70.79 c -0.76,0 -1.37,0.21 -1.83,0.64 -0.46,0.42 -0.69,0.96 -0.69,1.61 v 3.4 h -1.55 v -7.02 h 1.37 v 0.17 c 0.02,0.3 0.05,0.57 0.07,0.81 0.02,0.24 0.04,0.52 0.07,0.81 0.15,-0.31 0.34,-0.59 0.57,-0.83 0.23,-0.24 0.47,-0.45 0.73,-0.62 0.26,-0.17 0.51,-0.3 0.75,-0.38 0.24,-0.08 0.46,-0.13 0.65,-0.13 z"
   id="path599" />
			<path
   d="m 142.18,76.44 h -1.55 V 62.41 h 1.55 z"
   id="path601" />
		</g>
		<g
   id="g619">
			<path
   d="m 82.06,85.79 c 0,-0.24 0.05,-0.48 0.14,-0.69 0.09,-0.22 0.22,-0.41 0.39,-0.57 0.16,-0.17 0.35,-0.3 0.58,-0.39 0.22,-0.1 0.46,-0.14 0.72,-0.14 0.17,0 0.33,0.02 0.48,0.07 0.15,0.05 0.28,0.11 0.4,0.18 0.12,0.07 0.21,0.15 0.29,0.22 0.08,0.08 0.12,0.15 0.14,0.21 -0.01,-0.06 -0.02,-0.12 -0.03,-0.17 -0.01,-0.06 -0.02,-0.12 -0.03,-0.18 v -3.69 h 0.57 v 6.89 H 85.2 v -0.36 -0.23 c -0.02,0.06 -0.06,0.13 -0.13,0.21 -0.07,0.08 -0.16,0.15 -0.28,0.22 -0.11,0.07 -0.25,0.12 -0.4,0.17 -0.15,0.05 -0.32,0.07 -0.5,0.07 -0.26,0 -0.5,-0.05 -0.72,-0.14 -0.22,-0.1 -0.42,-0.22 -0.58,-0.39 C 82.43,86.91 82.3,86.72 82.2,86.51 82.1,86.3 82.06,86.04 82.06,85.79 Z m 0.58,0 c 0,0.18 0.03,0.34 0.09,0.49 0.06,0.15 0.15,0.28 0.26,0.39 0.11,0.11 0.24,0.2 0.39,0.26 0.15,0.06 0.32,0.1 0.51,0.1 0.18,0 0.34,-0.03 0.5,-0.1 0.15,-0.06 0.28,-0.15 0.39,-0.26 0.11,-0.11 0.2,-0.24 0.26,-0.39 0.06,-0.15 0.1,-0.31 0.1,-0.49 0,-0.17 -0.03,-0.33 -0.1,-0.49 -0.06,-0.15 -0.15,-0.28 -0.26,-0.39 -0.11,-0.11 -0.24,-0.2 -0.39,-0.26 -0.15,-0.06 -0.32,-0.1 -0.5,-0.1 -0.18,0 -0.35,0.03 -0.51,0.1 -0.15,0.06 -0.28,0.15 -0.39,0.26 -0.11,0.11 -0.2,0.24 -0.26,0.39 -0.06,0.16 -0.09,0.32 -0.09,0.49 z"
   id="path605" />
			<path
   d="m 86.94,82.8 c 0,-0.11 0.04,-0.2 0.12,-0.28 0.08,-0.08 0.17,-0.11 0.28,-0.11 0.09,0 0.18,0.04 0.26,0.11 0.08,0.08 0.12,0.17 0.12,0.28 0,0.12 -0.04,0.21 -0.12,0.28 -0.08,0.07 -0.17,0.11 -0.26,0.11 -0.1,0 -0.2,-0.04 -0.28,-0.11 -0.08,-0.07 -0.12,-0.16 -0.12,-0.28 z m 0.67,4.72 h -0.58 v -3.44 h 0.58 z"
   id="path607" />
			<path
   d="m 88.66,85.8 c 0,-0.24 0.05,-0.48 0.14,-0.69 0.09,-0.22 0.22,-0.41 0.39,-0.57 0.16,-0.17 0.35,-0.3 0.58,-0.4 0.22,-0.1 0.46,-0.15 0.72,-0.15 0.17,0 0.33,0.02 0.48,0.07 0.15,0.05 0.28,0.11 0.4,0.18 0.12,0.07 0.21,0.15 0.29,0.23 0.08,0.08 0.12,0.15 0.14,0.21 0,-0.1 0,-0.2 0.01,-0.3 0.01,-0.1 0.02,-0.21 0.02,-0.31 h 0.47 v 3.44 h -0.5 v -0.36 -0.23 c -0.02,0.06 -0.06,0.13 -0.13,0.21 -0.07,0.08 -0.16,0.15 -0.28,0.22 -0.11,0.07 -0.25,0.12 -0.4,0.17 -0.15,0.05 -0.32,0.07 -0.51,0.07 -0.26,0 -0.5,-0.05 -0.72,-0.14 -0.22,-0.1 -0.42,-0.22 -0.58,-0.39 C 89.02,86.9 88.89,86.71 88.79,86.49 88.7,86.28 88.66,86.05 88.66,85.8 Z m 0.58,-0.01 c 0,0.18 0.03,0.34 0.1,0.49 0.06,0.15 0.15,0.28 0.26,0.39 0.11,0.11 0.24,0.2 0.39,0.26 0.15,0.06 0.32,0.1 0.5,0.1 0.18,0 0.34,-0.03 0.5,-0.1 0.15,-0.06 0.28,-0.15 0.39,-0.26 0.11,-0.11 0.2,-0.24 0.26,-0.39 0.06,-0.15 0.1,-0.31 0.1,-0.49 0,-0.17 -0.03,-0.33 -0.1,-0.49 -0.06,-0.15 -0.15,-0.28 -0.26,-0.39 -0.11,-0.11 -0.24,-0.2 -0.39,-0.26 -0.15,-0.06 -0.32,-0.1 -0.5,-0.1 -0.18,0 -0.34,0.03 -0.5,0.1 -0.15,0.06 -0.28,0.15 -0.39,0.26 -0.11,0.11 -0.2,0.24 -0.26,0.39 -0.07,0.16 -0.1,0.32 -0.1,0.49 z"
   id="path609" />
			<path
   d="m 93.7,84.08 h 0.51 v 0.2 c 0.01,0.12 0.01,0.24 0.02,0.34 0.01,0.11 0.01,0.22 0.02,0.34 0.12,-0.29 0.32,-0.53 0.58,-0.7 0.26,-0.17 0.57,-0.26 0.92,-0.27 0.33,0 0.6,0.08 0.79,0.25 0.2,0.17 0.31,0.39 0.35,0.67 0.13,-0.28 0.33,-0.5 0.59,-0.67 0.26,-0.16 0.56,-0.25 0.9,-0.25 0.35,0 0.62,0.1 0.83,0.28 0.2,0.19 0.31,0.44 0.32,0.74 v 2.49 h -0.57 v -2.27 c -0.01,-0.18 -0.08,-0.33 -0.2,-0.47 -0.12,-0.13 -0.3,-0.21 -0.55,-0.22 -0.17,0 -0.34,0.03 -0.49,0.09 -0.16,0.06 -0.29,0.14 -0.41,0.24 -0.12,0.1 -0.22,0.23 -0.29,0.37 -0.07,0.14 -0.11,0.3 -0.12,0.46 v 1.79 h -0.57 v -2.27 c -0.01,-0.18 -0.08,-0.33 -0.2,-0.47 -0.12,-0.13 -0.3,-0.21 -0.55,-0.22 -0.17,0 -0.34,0.03 -0.5,0.09 -0.16,0.06 -0.3,0.14 -0.42,0.25 -0.12,0.1 -0.21,0.23 -0.28,0.37 -0.07,0.14 -0.11,0.3 -0.11,0.47 v 1.77 H 93.7 Z"
   id="path611" />
			<path
   d="m 100.49,85.79 c 0,-0.24 0.05,-0.48 0.14,-0.7 0.09,-0.22 0.22,-0.41 0.39,-0.57 0.17,-0.16 0.36,-0.29 0.58,-0.39 0.22,-0.1 0.46,-0.14 0.71,-0.14 0.26,0 0.5,0.05 0.72,0.14 0.22,0.09 0.42,0.22 0.58,0.39 0.17,0.16 0.3,0.35 0.39,0.57 0.09,0.22 0.14,0.45 0.14,0.7 0,0.25 -0.05,0.49 -0.14,0.7 -0.1,0.22 -0.23,0.41 -0.39,0.57 -0.17,0.16 -0.36,0.29 -0.58,0.39 -0.22,0.09 -0.46,0.14 -0.72,0.14 -0.25,0 -0.49,-0.05 -0.71,-0.14 -0.22,-0.1 -0.41,-0.22 -0.58,-0.39 -0.17,-0.16 -0.3,-0.35 -0.39,-0.57 -0.09,-0.21 -0.14,-0.45 -0.14,-0.7 z m 0.57,0.01 c 0,0.17 0.03,0.33 0.1,0.48 0.06,0.15 0.15,0.28 0.27,0.39 0.11,0.11 0.24,0.2 0.4,0.26 0.15,0.06 0.31,0.1 0.48,0.1 0.17,0 0.33,-0.03 0.48,-0.1 0.15,-0.06 0.28,-0.15 0.39,-0.26 0.11,-0.11 0.2,-0.24 0.27,-0.39 0.06,-0.15 0.1,-0.31 0.1,-0.48 0,-0.17 -0.03,-0.33 -0.1,-0.49 -0.06,-0.15 -0.15,-0.29 -0.27,-0.4 -0.11,-0.11 -0.24,-0.2 -0.39,-0.27 -0.15,-0.06 -0.31,-0.1 -0.48,-0.1 -0.17,0 -0.33,0.03 -0.48,0.1 -0.15,0.06 -0.28,0.15 -0.4,0.27 -0.11,0.11 -0.2,0.25 -0.27,0.4 -0.06,0.16 -0.1,0.32 -0.1,0.49 z"
   id="path613" />
			<path
   d="m 105.35,84.08 h 0.51 v 0.2 c 0.01,0.12 0.01,0.24 0.02,0.34 0.01,0.11 0.01,0.22 0.02,0.34 0.12,-0.29 0.32,-0.53 0.59,-0.7 0.27,-0.17 0.57,-0.26 0.91,-0.26 0.35,0 0.62,0.1 0.83,0.28 0.2,0.19 0.31,0.44 0.32,0.74 v 2.49 h -0.57 v -2.27 c -0.01,-0.18 -0.08,-0.33 -0.2,-0.47 -0.12,-0.13 -0.3,-0.21 -0.55,-0.22 -0.17,0 -0.34,0.03 -0.5,0.09 -0.16,0.06 -0.3,0.14 -0.42,0.25 -0.12,0.1 -0.21,0.23 -0.28,0.37 -0.07,0.14 -0.11,0.3 -0.11,0.47 v 1.77 h -0.58 v -3.42 z"
   id="path615" />
			<path
   d="m 109.52,85.79 c 0,-0.24 0.05,-0.48 0.14,-0.69 0.09,-0.22 0.22,-0.41 0.39,-0.57 0.16,-0.17 0.35,-0.3 0.58,-0.39 0.22,-0.1 0.46,-0.14 0.72,-0.14 0.17,0 0.33,0.02 0.48,0.07 0.15,0.05 0.28,0.11 0.4,0.18 0.12,0.07 0.21,0.15 0.29,0.22 0.08,0.08 0.12,0.15 0.14,0.21 -0.01,-0.06 -0.02,-0.12 -0.03,-0.17 -0.01,-0.06 -0.02,-0.12 -0.03,-0.18 v -3.69 h 0.57 v 6.89 h -0.51 v -0.36 -0.23 c -0.02,0.06 -0.06,0.13 -0.13,0.21 -0.07,0.08 -0.16,0.15 -0.28,0.22 -0.11,0.07 -0.25,0.12 -0.4,0.17 -0.15,0.05 -0.32,0.07 -0.51,0.07 -0.26,0 -0.5,-0.05 -0.72,-0.14 -0.22,-0.1 -0.42,-0.22 -0.58,-0.39 -0.16,-0.17 -0.29,-0.36 -0.39,-0.57 -0.08,-0.24 -0.13,-0.47 -0.13,-0.72 z m 0.58,0 c 0,0.18 0.03,0.34 0.09,0.49 0.06,0.15 0.15,0.28 0.26,0.39 0.11,0.11 0.24,0.2 0.39,0.26 0.15,0.06 0.32,0.1 0.51,0.1 0.18,0 0.34,-0.03 0.5,-0.1 0.15,-0.06 0.28,-0.15 0.39,-0.26 0.11,-0.11 0.2,-0.24 0.26,-0.39 0.06,-0.15 0.1,-0.31 0.1,-0.49 0,-0.17 -0.03,-0.33 -0.1,-0.49 -0.06,-0.15 -0.15,-0.28 -0.26,-0.39 -0.11,-0.11 -0.24,-0.2 -0.39,-0.26 -0.15,-0.06 -0.32,-0.1 -0.5,-0.1 -0.18,0 -0.35,0.03 -0.51,0.1 -0.15,0.06 -0.28,0.15 -0.39,0.26 -0.11,0.11 -0.2,0.24 -0.26,0.39 -0.06,0.16 -0.09,0.32 -0.09,0.49 z"
   id="path617" />
		</g>
	</g>
</g>
</svg>
