<?xml version="1.0" encoding="utf-8"?>
<!-- Generator: Adobe Illustrator 24.1.1, SVG Export Plug-In . SVG Version: 6.00 Build 0)  -->
<svg version="1.1" id="Layer_1" xmlns="http://www.w3.org/2000/svg" xmlns:xlink="http://www.w3.org/1999/xlink" x="0px" y="0px"
	 viewBox="0 0 1364.43 326.68" style="enable-background:new 0 0 1364.43 326.68;" xml:space="preserve">
<style type="text/css">
	.st0{fill:#959596;}
	.st1{fill:#D5D5D5;}
	.st2{fill:#FFFFFF;}
	.st3{fill:#144147;}
</style>
<g>
	<g>
		<path class="st3" d="M46.28,287.3c-5.86,0-11.76-0.5-17.68-1.5c-0.28-0.05-0.5-0.27-0.55-0.55c-2.92-17.26-1.58-34.34,3.99-50.79
			c5.22-15.42,14.16-29.75,25.84-41.44c11.69-11.69,26.02-20.62,41.44-25.84c16.45-5.57,33.53-6.91,50.79-3.99
			c0.28,0.05,0.5,0.27,0.54,0.55c2.92,17.26,1.58,34.34-3.99,50.79c-5.22,15.42-14.16,29.75-25.84,41.44
			c-11.69,11.69-26.02,20.62-41.44,25.84C68.59,285.46,57.51,287.3,46.28,287.3z M29.29,284.56c33.33,5.49,66.33-5.26,90.6-29.54
			s35.02-57.27,29.54-90.6c-33.33-5.49-66.33,5.26-90.6,29.54C34.55,218.23,23.8,251.23,29.29,284.56z"/>
		<path class="st3" d="M64.89,260.46c-3.35,0-6.71-0.29-10.1-0.86c-0.28-0.05-0.5-0.27-0.55-0.54c-1.67-9.85-0.9-19.61,2.28-28.99
			c2.98-8.8,8.08-16.98,14.75-23.65c6.67-6.67,14.85-11.77,23.65-14.75c9.39-3.18,19.14-3.94,28.99-2.28
			c0.28,0.05,0.5,0.27,0.54,0.54c1.67,9.85,0.9,19.61-2.28,28.99c-2.98,8.81-8.08,16.98-14.75,23.65s-14.85,11.77-23.65,14.75
			C77.62,259.41,71.29,260.46,64.89,260.46z M55.48,258.37c18.77,3.02,37.34-3.06,51.02-16.73c13.67-13.67,19.76-32.25,16.73-51.02
			c-18.77-3.02-37.34,3.06-51.02,16.73C58.54,221.02,52.46,239.59,55.48,258.37z"/>
		<path class="st3" d="M55.56,216.68c-0.15,0-0.29-0.05-0.41-0.14c-0.19-0.15-0.28-0.38-0.25-0.62l3.26-23
			c0.04-0.3,0.29-0.54,0.6-0.57l21.82-2.09l22.03-0.67l22.6-13.97l-0.74-12.96l1.33-0.08l0.7,12.34l23.19-11.69
			c0.29-0.15,0.65-0.06,0.84,0.2c0.19,0.26,0.16,0.63-0.07,0.86l-26.19,26.19c-0.2,0.2-0.51,0.25-0.77,0.12
			c-0.26-0.13-0.4-0.41-0.36-0.69l1.88-12.63l-21.87,13.52c-0.1,0.06-0.21,0.1-0.33,0.1l-22.17,0.68l-21.26,2.04l-3.03,21.35
			l11.18-4.38l0.49,1.24l-12.24,4.8C55.72,216.67,55.64,216.68,55.56,216.68z M126.51,176.43l-1.75,11.71l21.84-21.84L126.51,176.43
			z"/>
		<path class="st3" d="M123.9,190.7l-0.18-1.32l14.05-1.88c0.05-0.01,0.1-0.01,0.15,0l13.3,1.2l-0.12,1.33l-13.23-1.2L123.9,190.7z"
			/>
		<path class="st3" d="M123.13,234.08c-0.09,0-0.18-0.02-0.27-0.06c-0.24-0.11-0.4-0.35-0.4-0.62l0.19-21.05
			c0-0.12,0.03-0.23,0.09-0.34l14.53-24.19l12.13-24.29l1.19,0.59l-12.01,24.04l9.23,22.19c0.11,0.25,0.04,0.55-0.16,0.74
			l-24.08,22.79C123.46,234.02,123.3,234.08,123.13,234.08z M123.98,212.56l-0.17,19.3l22.61-21.4l-8.67-20.83L123.98,212.56z"/>
		<path class="st3" d="M80.64,191.6c-0.06,0-0.12-0.01-0.18-0.02c-0.24-0.07-0.43-0.27-0.47-0.52l-2.5-13.07l1.31-0.25l2.25,11.76
			l20.77-23.03c0.19-0.2,0.48-0.27,0.73-0.18l23.59,9.08l-0.48,1.24l-23.17-8.91l-21.36,23.68C81.01,191.52,80.83,191.6,80.64,191.6
			z"/>
		
			<rect x="71.5" y="196.44" transform="matrix(0.3736 -0.9276 0.9276 0.3736 -133.8758 195.9562)" class="st3" width="13.31" height="1.33"/>
		<path class="st3" d="M28.71,285.8c-0.14,0-0.27-0.04-0.39-0.13c-0.26-0.19-0.35-0.55-0.2-0.84l12.12-24.07l1.19,0.6l-10.26,20.38
			l23.27-23.27l0.94,0.94l-26.19,26.19C29.05,285.74,28.88,285.8,28.71,285.8z"/>
		<path class="st3" d="M55.9,237.41l-1.33-0.02l0.32-20.8l-12.75-1.85l0.19-1.32l13.33,1.93c0.33,0.05,0.57,0.33,0.57,0.67
			L55.9,237.41z"/>
		<path class="st3" d="M75.56,259.46l-0.01-1.33l23.64-0.18l19.79-2.25l3.32-21.24l-11.77,4.67l-0.49-1.24l12.85-5.11
			c0.22-0.09,0.47-0.05,0.66,0.1c0.19,0.15,0.28,0.39,0.24,0.62l-3.58,22.89c-0.05,0.3-0.28,0.52-0.58,0.56l-20.32,2.31
			c-0.02,0-0.05,0-0.07,0L75.56,259.46z"/>
		<path class="st3" d="M40.83,261.73c-0.02,0-0.04,0-0.06,0l-13.3-1.11l0.11-1.33l13.23,1.1l14-2.11l0.2,1.32l-14.08,2.12
			C40.89,261.73,40.86,261.73,40.83,261.73z"/>
		
			<rect x="128.83" y="228.19" transform="matrix(0.1934 -0.9811 0.9811 0.1934 -125.7934 316.3335)" class="st3" width="1.33" height="12.97"/>
		<path class="st3" d="M99.54,271.62l-0.99-12.96c-0.01-0.08,0-0.16,0.02-0.23l3.64-12.76l1.28,0.36l-3.6,12.64l0.98,12.84
			L99.54,271.62z"/>
		<path class="st3" d="M40.83,261.73c-0.02,0-0.04,0-0.06,0c-0.24-0.02-0.46-0.18-0.55-0.4l-9.43-22.36
			c-0.11-0.26-0.05-0.55,0.16-0.74l24.16-22.68l0.91,0.97l-23.82,22.37l8.76,20.79l13.3-20.35l1.11,0.73l-13.99,21.39
			C41.26,261.62,41.05,261.73,40.83,261.73z"/>
		<path class="st3" d="M29,285.73l-0.59-1.19l24.25-11.88l21.47-14.23l0.74,1.11l-21.5,14.26c-0.02,0.02-0.05,0.03-0.07,0.04
			L29,285.73z"/>
		<path class="st3" d="M53.22,286.37l-0.89-13.09c0-0.04,0-0.09,0-0.13l1.91-14.29l1.32,0.18l-1.9,14.22l0.89,13.02L53.22,286.37z"
			/>
		<path class="st3" d="M74.26,283.37c-0.09,0-0.18-0.02-0.27-0.06l-21.26-9.47l0.54-1.22l20.85,9.29l24.64-23.78l0.92,0.96
			l-24.96,24.09C74.6,283.3,74.43,283.37,74.26,283.37z"/>
	</g>
	<g>
		<path class="st3" d="M132.43,155.08c-11.22,0-22.3-1.83-33.11-5.49c-15.42-5.22-29.75-14.16-41.44-25.84S37.26,97.73,32.04,82.31
			c-5.57-16.45-6.91-33.53-3.99-50.79c0.05-0.28,0.27-0.5,0.55-0.54c17.26-2.92,34.34-1.58,50.79,3.99
			c15.42,5.22,29.75,14.16,41.44,25.84c11.69,11.69,20.62,26.02,25.84,41.44c5.56,16.44,6.91,33.53,3.99,50.79
			c-0.05,0.28-0.27,0.5-0.54,0.55C144.19,154.58,138.29,155.08,132.43,155.08z M29.29,32.21c-5.49,33.33,5.26,66.33,29.54,90.6
			s57.27,35.02,90.6,29.54c5.49-33.33-5.26-66.33-29.54-90.6S62.62,26.72,29.29,32.21z"/>
		<path class="st3" d="M113.83,128.24c-6.41,0-12.73-1.05-18.9-3.13c-8.81-2.98-16.98-8.08-23.65-14.75
			c-6.67-6.67-11.77-14.85-14.75-23.65c-3.18-9.39-3.94-19.14-2.28-28.99c0.05-0.28,0.27-0.5,0.55-0.54
			c9.85-1.67,19.61-0.9,28.99,2.28c8.81,2.98,16.98,8.08,23.65,14.75s11.77,14.85,14.75,23.65c3.18,9.39,3.94,19.14,2.28,28.99
			c-0.05,0.28-0.27,0.5-0.54,0.54C120.54,127.96,117.17,128.24,113.83,128.24z M55.48,58.4c-3.03,18.77,3.06,37.34,16.73,51.02
			c13.67,13.67,32.24,19.76,51.02,16.73c3.02-18.77-3.06-37.35-16.73-51.02C92.83,61.46,74.26,55.37,55.48,58.4z"/>
		<path class="st3" d="M123.16,84.47c-0.08,0-0.16-0.02-0.24-0.05l-12.24-4.8l0.49-1.24l11.18,4.38l-3.03-21.35l-21.3-2.04
			l-22.13-0.67c-0.12,0-0.23-0.04-0.33-0.1L53.68,45.09l1.88,12.63c0.04,0.28-0.1,0.56-0.36,0.69c-0.26,0.13-0.57,0.08-0.77-0.12
			L28.24,32.1c-0.23-0.23-0.26-0.6-0.07-0.86c0.19-0.27,0.55-0.35,0.84-0.2L52.2,42.72l0.7-12.34l1.33,0.08L53.5,43.41l22.6,13.97
			l21.99,0.67l21.87,2.09c0.31,0.03,0.55,0.26,0.6,0.57l3.26,23c0.03,0.23-0.06,0.47-0.25,0.62
			C123.45,84.42,123.3,84.47,123.16,84.47z M32.11,34.09l21.84,21.84L52.2,44.21L32.11,34.09z"/>
		<path class="st3" d="M54.81,58.48l-13.98-1.87l-13.23,1.2l-0.12-1.33l13.3-1.2c0.05,0,0.1,0,0.15,0l14.05,1.88L54.81,58.48z"/>
		<path class="st3" d="M55.59,101.87c-0.17,0-0.33-0.06-0.46-0.18L31.05,78.89c-0.2-0.19-0.26-0.48-0.16-0.74l9.23-22.19
			L28.12,31.93l1.19-0.59l12.13,24.29l14.53,24.19c0.06,0.1,0.09,0.22,0.1,0.34l0.19,21.05c0,0.27-0.15,0.51-0.4,0.62
			C55.77,101.85,55.67,101.87,55.59,101.87z M32.29,78.24l22.61,21.4l-0.17-19.3L40.96,57.41L32.29,78.24z"/>
		<path class="st3" d="M98.07,59.38c-0.19,0-0.37-0.08-0.49-0.22L76.21,35.48l-23.17,8.91l-0.48-1.24l23.59-9.08
			c0.26-0.1,0.55-0.03,0.73,0.18l20.77,23.03l2.25-11.76l1.31,0.25l-2.5,13.07c-0.05,0.25-0.23,0.45-0.47,0.52
			C98.19,59.37,98.13,59.38,98.07,59.38z"/>
		
			<rect x="99.89" y="58.23" transform="matrix(0.9275 -0.3737 0.3737 0.9275 -16.9648 42.2844)" class="st3" width="1.33" height="13.31"/>
		<path class="st3" d="M150,153.59c-0.17,0-0.34-0.07-0.47-0.19l-26.19-26.19l0.94-0.94l23.27,23.27l-10.26-20.38l1.19-0.6
			l12.12,24.07c0.15,0.29,0.06,0.65-0.2,0.84C150.28,153.55,150.14,153.59,150,153.59z"/>
		<path class="st3" d="M122.82,105.2l-0.33-21.38c-0.01-0.33,0.24-0.62,0.57-0.67l13.33-1.93l0.19,1.32l-12.75,1.85l0.32,20.8
			L122.82,105.2z"/>
		<path class="st3" d="M103.16,127.24l-23.67-0.18c-0.02,0-0.05,0-0.07,0l-20.32-2.31c-0.3-0.03-0.54-0.26-0.58-0.56l-3.58-22.89
			c-0.04-0.24,0.06-0.47,0.24-0.62c0.19-0.15,0.44-0.19,0.66-0.1l12.85,5.11l-0.49,1.24l-11.77-4.67l3.32,21.24l19.79,2.25
			l23.64,0.18L103.16,127.24z"/>
		<path class="st3" d="M137.89,129.52c-0.03,0-0.07,0-0.1-0.01l-14.08-2.12l0.2-1.32l14,2.11l13.23-1.1l0.11,1.33l-13.3,1.11
			C137.93,129.52,137.91,129.52,137.89,129.52z"/>
		
			<rect x="42.74" y="101.79" transform="matrix(0.9811 -0.1934 0.1934 0.9811 -18.8822 11.4515)" class="st3" width="12.97" height="1.33"/>
		<path class="st3" d="M79.17,139.41l-1.33-0.1l0.98-12.84l-3.6-12.64l1.28-0.36l3.64,12.76c0.02,0.08,0.03,0.15,0.02,0.23
			L79.17,139.41z"/>
		<path class="st3" d="M137.89,129.52c-0.22,0-0.43-0.11-0.56-0.3l-13.99-21.39l1.11-0.73l13.31,20.35l8.76-20.79L122.7,84.29
			l0.91-0.97L147.77,106c0.2,0.19,0.27,0.49,0.16,0.74l-9.43,22.36c-0.1,0.23-0.31,0.38-0.55,0.4
			C137.93,129.52,137.91,129.52,137.89,129.52z"/>
		<path class="st3" d="M149.71,153.52l-24.29-11.9c-0.03-0.01-0.05-0.03-0.07-0.04l-21.5-14.26l0.74-1.11l21.47,14.23l24.25,11.88
			L149.71,153.52z"/>
		<path class="st3" d="M125.49,154.15l-1.33-0.09l0.89-13.02l-1.9-14.22l1.32-0.18l1.91,14.29c0.01,0.04,0.01,0.09,0,0.13
			L125.49,154.15z"/>
		<path class="st3" d="M104.45,151.15c-0.17,0-0.34-0.06-0.46-0.19l-24.96-24.09l0.92-0.96l24.64,23.78l20.85-9.29l0.54,1.22
			l-21.26,9.47C104.64,151.13,104.55,151.15,104.45,151.15z"/>
	</g>
	<g>
		<path class="st3" d="M264.64,287.3c-11.22,0-22.3-1.83-33.11-5.49c-15.42-5.22-29.75-14.16-41.44-25.84
			c-11.69-11.69-20.62-26.02-25.84-41.44c-5.56-16.44-6.91-33.53-3.99-50.79c0.05-0.28,0.27-0.5,0.55-0.54
			c17.26-2.92,34.34-1.58,50.79,3.99c15.43,5.22,29.75,14.16,41.44,25.84c11.69,11.69,20.62,26.02,25.84,41.44
			c5.56,16.45,6.91,33.53,3.99,50.79c-0.05,0.28-0.27,0.5-0.55,0.54C276.41,286.8,270.5,287.3,264.64,287.3z M161.5,164.42
			c-5.49,33.33,5.26,66.33,29.54,90.6c24.27,24.27,57.27,35.03,90.6,29.54c5.49-33.33-5.26-66.33-29.54-90.6
			C227.83,169.68,194.83,158.93,161.5,164.42z"/>
		<path class="st3" d="M246.04,260.46c-6.41,0-12.73-1.05-18.9-3.13c-8.8-2.98-16.98-8.08-23.65-14.75s-11.77-14.85-14.75-23.65
			c-3.18-9.39-3.94-19.14-2.28-29c0.05-0.28,0.27-0.5,0.54-0.54c9.85-1.67,19.61-0.9,28.99,2.28c8.8,2.98,16.98,8.08,23.65,14.75
			c6.67,6.67,11.77,14.85,14.75,23.65c3.18,9.39,3.94,19.14,2.28,28.99c-0.05,0.28-0.27,0.5-0.54,0.54
			C252.75,260.17,249.39,260.46,246.04,260.46z M187.69,190.61c-3.02,18.77,3.06,37.35,16.73,51.02
			c13.67,13.67,32.25,19.76,51.02,16.73c3.02-18.77-3.06-37.35-16.73-51.02C225.04,193.67,206.47,187.59,187.69,190.61z"/>
		<path class="st3" d="M255.37,216.68c-0.08,0-0.16-0.02-0.24-0.05l-12.24-4.8l0.49-1.24l11.18,4.38l-3.03-21.35l-21.3-2.04
			l-22.13-0.67c-0.12,0-0.23-0.04-0.33-0.1l-21.87-13.52l1.88,12.63c0.04,0.28-0.1,0.56-0.36,0.69c-0.26,0.13-0.57,0.08-0.77-0.12
			l-26.19-26.19c-0.23-0.23-0.26-0.6-0.07-0.86s0.55-0.35,0.84-0.2l23.19,11.69l0.7-12.34l1.33,0.08l-0.74,12.96l22.6,13.97
			l21.99,0.67l21.87,2.09c0.31,0.03,0.55,0.26,0.6,0.57l3.26,23c0.03,0.23-0.06,0.47-0.25,0.62
			C255.66,216.63,255.52,216.68,255.37,216.68z M164.32,166.3l21.84,21.84l-1.75-11.71L164.32,166.3z"/>
		<path class="st3" d="M187.03,190.7l-13.98-1.87l-13.23,1.2l-0.12-1.33l13.3-1.2c0.05,0,0.1,0,0.15,0l14.05,1.88L187.03,190.7z"/>
		<path class="st3" d="M187.8,234.08c-0.17,0-0.33-0.06-0.46-0.18l-24.08-22.79c-0.2-0.19-0.26-0.48-0.16-0.74l9.23-22.19
			l-12.01-24.04l1.19-0.59l12.13,24.29l14.53,24.19c0.06,0.1,0.09,0.22,0.09,0.34l0.19,21.05c0,0.27-0.16,0.51-0.4,0.62
			C187.98,234.07,187.89,234.08,187.8,234.08z M164.5,210.46l22.61,21.4l-0.17-19.3l-13.77-22.93L164.5,210.46z"/>
		<path class="st3" d="M230.28,191.6c-0.19,0-0.37-0.08-0.49-0.22l-21.36-23.68l-23.17,8.91l-0.48-1.24l23.59-9.08
			c0.26-0.1,0.55-0.03,0.73,0.18l20.77,23.03l2.25-11.76l1.31,0.25l-2.5,13.07c-0.05,0.25-0.23,0.45-0.47,0.52
			C230.4,191.59,230.34,191.6,230.28,191.6z"/>
		
			<rect x="232.1" y="190.45" transform="matrix(0.9275 -0.3738 0.3738 0.9275 -56.8005 101.2858)" class="st3" width="1.33" height="13.31"/>
		<path class="st3" d="M282.22,285.8c-0.17,0-0.34-0.07-0.47-0.19l-26.19-26.19l0.94-0.94l23.27,23.27l-10.26-20.38l1.19-0.6
			l12.12,24.07c0.15,0.29,0.06,0.65-0.2,0.84C282.49,285.76,282.35,285.8,282.22,285.8z"/>
		<path class="st3" d="M255.03,237.41l-0.33-21.38c-0.01-0.33,0.24-0.62,0.57-0.67l13.33-1.93l0.19,1.32l-12.75,1.85l0.32,20.8
			L255.03,237.41z"/>
		<path class="st3" d="M235.37,259.46l-23.67-0.18c-0.02,0-0.05,0-0.07,0l-20.32-2.31c-0.3-0.03-0.54-0.26-0.58-0.56l-3.58-22.89
			c-0.04-0.24,0.06-0.47,0.24-0.62c0.19-0.15,0.44-0.19,0.66-0.1l12.85,5.11l-0.49,1.24l-11.77-4.67l3.32,21.24l19.79,2.25
			l23.64,0.18L235.37,259.46z"/>
		<path class="st3" d="M270.1,261.73c-0.03,0-0.07,0-0.1-0.01l-14.08-2.12l0.2-1.32l14,2.11l13.23-1.1l0.11,1.33l-13.3,1.11
			C270.14,261.73,270.12,261.73,270.1,261.73z"/>
		
			<rect x="174.95" y="234.01" transform="matrix(0.9811 -0.1934 0.1934 0.9811 -41.9523 39.5112)" class="st3" width="12.97" height="1.33"/>
		<path class="st3" d="M211.38,271.62l-1.33-0.1l0.98-12.84l-3.6-12.64l1.28-0.36l3.64,12.76c0.02,0.08,0.03,0.15,0.02,0.23
			L211.38,271.62z"/>
		<path class="st3" d="M270.1,261.73c-0.22,0-0.43-0.11-0.56-0.3l-13.99-21.39l1.11-0.73l13.31,20.35l8.76-20.79l-23.82-22.37
			l0.91-0.97l24.16,22.68c0.2,0.19,0.27,0.49,0.16,0.74l-9.43,22.36c-0.1,0.23-0.31,0.38-0.55,0.4
			C270.14,261.73,270.12,261.73,270.1,261.73z"/>
		<path class="st3" d="M281.92,285.73l-24.29-11.9c-0.03-0.01-0.05-0.03-0.07-0.04l-21.5-14.26l0.74-1.11l21.47,14.23l24.25,11.88
			L281.92,285.73z"/>
		<path class="st3" d="M257.7,286.37l-1.33-0.09l0.89-13.02l-1.9-14.22l1.32-0.18l1.91,14.29c0.01,0.04,0.01,0.09,0,0.13
			L257.7,286.37z"/>
		<path class="st3" d="M236.67,283.37c-0.17,0-0.34-0.06-0.46-0.19l-24.96-24.09l0.92-0.96l24.64,23.78l20.85-9.29l0.54,1.22
			l-21.26,9.47C236.85,283.35,236.76,283.37,236.67,283.37z"/>
	</g>
	<g>
		<polygon class="st3" points="257.29,58.17 267.51,56.8 276.34,39.12 		"/>
		<polygon class="st3" points="255.78,56.54 274.72,37.6 257.29,46.38 		"/>
		<path class="st3" d="M266.1,59.23l-10.65,1.42c0.8,5.31,0.9,10.6,0.29,15.81L266.1,59.23z"/>
		<path class="st3" d="M253.25,58.44l1.58-10.59l-16.5,10.19C243.26,57.55,248.24,57.68,253.25,58.44z"/>
		<polygon class="st3" points="213.58,59.41 232.86,58.82 253.8,45.88 233,37.88 		"/>
		<path class="st3" d="M186.84,98.55c1.93-5.37,4.64-10.5,8.02-15.17l-7.83,3.07L186.84,98.55z"/>
		<path class="st3" d="M224.01,61.31l-12.23,0.37l-3.16,7.85C213.35,66.07,218.55,63.28,224.01,61.31z"/>
		<path class="st3" d="M187.3,83.96l10.21-4c1.21-1.45,2.48-2.86,3.82-4.2c1.21-1.21,2.47-2.37,3.78-3.48l4.19-10.41l-19.14,1.83
			L187.3,83.96z"/>
		<path class="st3" d="M173.48,129.27l10.53-1.59c-0.7-4.61-0.87-9.2-0.5-13.74L173.48,129.27z"/>
		<path class="st3" d="M269.95,56.86l10.58,0.96c0.44-6.82,0.21-13.74-0.73-20.68L269.95,56.86z"/>
		<polygon class="st3" points="164.58,150.87 182.35,142.17 183.74,131.71 		"/>
		<path class="st3" d="M183.5,86.45l-10.37-1.5c-3.76,6.31-6.81,12.94-9.12,19.81L183.5,86.45z"/>
		<path class="st3" d="M200.3,130.35c-1.67,0.14-3.35,0.22-5.03,0.22c-3,0-6.01-0.23-9.04-0.68l-1.43,10.74L200.3,130.35z"/>
		<path class="st3" d="M255.83,102.41l9.91,1.95c3.96-6.49,7.16-13.32,9.58-20.4L255.83,102.41z"/>
		<path class="st3" d="M171.41,128.38l12.72-19.44c0.11-0.67,0.23-1.35,0.37-2.02l0.28-18.64l-21.69,20.36L171.41,128.38z"/>
		<path class="st3" d="M253.22,60.67c-6.65-1.03-13.27-0.91-19.65,0.29c-0.11,0.04-0.23,0.07-0.35,0.08l-0.06,0
			c-11.24,2.2-21.71,7.75-30.26,16.29c-8.4,8.4-13.92,18.67-16.19,29.69l0,0.06l-0.01,0c-1.36,6.66-1.54,13.6-0.46,20.56
			c6.66,1.04,13.29,0.91,19.67-0.29l0-0.01l0.04,0c11.37-2.15,21.97-7.73,30.61-16.36c8.21-8.21,13.66-18.2,16.02-28.94l0-0.03
			c0-0.15,0.04-0.29,0.1-0.42C254.11,74.83,254.32,67.77,253.22,60.67z"/>
		<path class="st3" d="M214.66,127.28l14.09-0.11l2.47-8.67C226.17,122.27,220.56,125.24,214.66,127.28z"/>
		<path class="st3" d="M226.83,129.41l-20.82,0.16c-0.24,0.05-0.48,0.09-0.73,0.14l-19.62,13.01l18.74,8.34L226.83,129.41z"/>
		<path class="st3" d="M185.29,154.82c5.46-0.46,10.84-1.36,16.11-2.68l-16.81-7.48L185.29,154.82z"/>
		<path class="st3" d="M228.67,130.71l-20.05,19.35c7.22-2.39,14.18-5.6,20.79-9.58L228.67,130.71z"/>
		<path class="st3" d="M183.08,154.98l-0.7-10.36l-19.62,9.61C169.58,155.16,176.38,155.39,183.08,154.98z"/>
		<path class="st3" d="M169.47,131.7l-10.56-0.88c-0.42,6.72-0.18,13.53,0.75,20.37L169.47,131.7z"/>
		<path class="st3" d="M169.47,129.47l-7.52-17.83c-1.44,5.55-2.4,11.22-2.88,16.97L169.47,129.47z"/>
		<path class="st3" d="M269.96,59.09l7.46,17.93c1.46-5.55,2.44-11.23,2.94-16.99L269.96,59.09z"/>
		<path class="st3" d="M254.42,104.39l-2.87,18.34c4.9-5.11,9.22-10.58,12.92-16.35L254.42,104.39z"/>
		<path class="st3" d="M230.78,129.26l0.75,9.9c5.33-3.39,10.42-7.3,15.2-11.71L230.78,129.26z"/>
		<path class="st3" d="M254.48,33.46c-6.25,0.51-12.41,1.59-18.41,3.22L255.08,44L254.48,33.46z"/>
		<path class="st3" d="M256.69,33.32l0.6,10.59l19.48-9.81C270.03,33.17,263.31,32.92,256.69,33.32z"/>
		<polygon class="st3" points="268.06,60.27 254.8,82.35 254.64,100.49 276.27,80.01 		"/>
		<path class="st3" d="M252.51,90.06c-2.02,5.53-4.87,10.79-8.41,15.56l8.3-3.3L252.51,90.06z"/>
		<path class="st3" d="M184.99,84.43l2.63-18.54c-5.05,5.3-9.47,11-13.24,17.01L184.99,84.43z"/>
		<path class="st3" d="M252.11,104.83l-10.81,4.29c-1.02,1.18-2.07,2.33-3.17,3.43c-1.26,1.26-2.57,2.46-3.92,3.6l-3.09,10.84
			l17.84-2.02L252.11,104.83z"/>
		<path class="st3" d="M209.7,59.61l-1.98-10.33c-5.43,3.47-10.6,7.47-15.45,12L209.7,59.61z"/>
		<polygon class="st3" points="182.11,130.21 171.93,131.74 163.17,149.15 		"/>
		<path class="st3" d="M211.69,58.2l17.47-19.37c-6.73,2.36-13.23,5.43-19.42,9.19L211.69,58.2z"/>
	</g>
</g>
<g>
	<g>
		<path class="st3" d="M391.44,104.17h-19.35v-7.01h46.67v7.01h-19.35v49.41h-7.98V104.17z"/>
		<path class="st3" d="M476.07,97.16v56.42h-8.06v-25.15h-32.4v25.15h-8.06V97.16h8.06v24.26h32.4V97.16H476.07z"/>
		<path class="st3" d="M533.95,146.57v7.01H493V97.16h39.82v7.01h-31.76v17.33h28.29v6.85h-28.29v18.22H533.95z"/>
		<path class="st3" d="M568.69,97.16h23.78c5.96,0,11.26,1.18,15.88,3.55c4.62,2.37,8.21,5.68,10.76,9.95
			c2.55,4.27,3.83,9.18,3.83,14.71c0,5.54-1.28,10.44-3.83,14.71c-2.55,4.27-6.14,7.59-10.76,9.95c-4.62,2.37-9.91,3.55-15.88,3.55
			h-23.78V97.16z M591.98,146.57c4.57,0,8.58-0.89,12.05-2.66c3.47-1.77,6.14-4.26,8.02-7.46c1.88-3.2,2.82-6.89,2.82-11.08
			c0-4.19-0.94-7.89-2.82-11.08c-1.88-3.2-4.55-5.68-8.02-7.46c-3.47-1.77-7.48-2.66-12.05-2.66h-15.23v42.4H591.98z"/>
		<path class="st3" d="M635.27,97.16h8.06v56.42h-8.06V97.16z"/>
		<path class="st3" d="M696.2,139.48h-29.99l-6.21,14.11h-8.3l25.55-56.42h7.98l25.63,56.42h-8.46L696.2,139.48z M693.38,133.03
			l-12.17-27.65l-12.17,27.65H693.38z"/>
		<path class="st3" d="M771.57,153.58l-0.08-41.11l-20.39,34.26h-3.71l-20.39-34.02v40.87h-7.74V97.16h6.61l23.54,39.66l23.21-39.66
			h6.61l0.08,56.42H771.57z"/>
		<path class="st3" d="M806.31,150.48c-4.57-2.5-8.16-5.95-10.76-10.36c-2.61-4.41-3.91-9.32-3.91-14.75
			c0-5.43,1.3-10.34,3.91-14.75c2.61-4.41,6.19-7.86,10.76-10.36c4.57-2.5,9.7-3.75,15.4-3.75c5.64,0,10.75,1.25,15.32,3.75
			c4.57,2.5,8.14,5.94,10.72,10.32c2.58,4.38,3.87,9.31,3.87,14.79c0,5.48-1.29,10.41-3.87,14.79c-2.58,4.38-6.15,7.82-10.72,10.32
			c-4.57,2.5-9.67,3.75-15.32,3.75C816.01,154.23,810.88,152.98,806.31,150.48z M832.87,144.23c3.3-1.88,5.91-4.47,7.82-7.78
			c1.91-3.3,2.86-7,2.86-11.08c0-4.08-0.95-7.78-2.86-11.08c-1.91-3.3-4.51-5.9-7.82-7.78c-3.3-1.88-7.03-2.82-11.16-2.82
			c-4.14,0-7.89,0.94-11.24,2.82c-3.36,1.88-5.99,4.47-7.9,7.78c-1.91,3.3-2.86,7-2.86,11.08c0,4.08,0.95,7.78,2.86,11.08
			c1.91,3.31,4.54,5.9,7.9,7.78c3.36,1.88,7.11,2.82,11.24,2.82C825.84,147.05,829.56,146.11,832.87,144.23z"/>
		<path class="st3" d="M912.47,97.16v56.42h-6.61L872,111.51v42.08h-8.06V97.16h6.61l33.85,42.08V97.16H912.47z"/>
		<path class="st3" d="M929.4,97.16h23.78c5.96,0,11.26,1.18,15.88,3.55c4.62,2.37,8.21,5.68,10.76,9.95
			c2.55,4.27,3.83,9.18,3.83,14.71c0,5.54-1.28,10.44-3.83,14.71c-2.55,4.27-6.14,7.59-10.76,9.95c-4.62,2.37-9.91,3.55-15.88,3.55
			H929.4V97.16z M952.69,146.57c4.57,0,8.58-0.89,12.05-2.66c3.47-1.77,6.14-4.26,8.02-7.46c1.88-3.2,2.82-6.89,2.82-11.08
			c0-4.19-0.94-7.89-2.82-11.08c-1.88-3.2-4.55-5.68-8.02-7.46c-3.47-1.77-7.48-2.66-12.05-2.66h-15.23v42.4H952.69z"/>
		<path class="st3" d="M1053.61,139.48h-29.99l-6.21,14.11h-8.3l25.55-56.42h7.98l25.63,56.42h-8.46L1053.61,139.48z
			 M1050.79,133.03l-12.17-27.65l-12.17,27.65H1050.79z"/>
		<path class="st3" d="M1085.04,104.17h-19.35v-7.01h46.67v7.01h-19.35v49.41h-7.98V104.17z"/>
		<path class="st3" d="M1162.1,146.57v7.01h-40.95V97.16h39.82v7.01h-31.76v17.33h28.29v6.85h-28.29v18.22H1162.1z"/>
		<path class="st3" d="M1175.16,97.16h8.06v49.41h30.55v7.01h-38.61V97.16z"/>
		<path class="st3" d="M1223.04,97.16h8.06v56.42h-8.06V97.16z"/>
		<path class="st3" d="M1288.98,146.57v7.01h-40.95V97.16h39.82v7.01h-31.76v17.33h28.29v6.85h-28.29v18.22H1288.98z"/>
		<path class="st3" d="M1339.76,153.58l-12.17-17.33c-1.5,0.11-2.69,0.16-3.55,0.16h-13.94v17.17h-8.06V97.16h22.01
			c7.31,0,13.06,1.75,17.25,5.24c4.19,3.49,6.29,8.3,6.29,14.43c0,4.35-1.08,8.06-3.22,11.12c-2.15,3.06-5.21,5.29-9.19,6.69
			l13.38,18.94H1339.76z M1335.48,126.26c2.69-2.2,4.03-5.35,4.03-9.43c0-4.08-1.34-7.21-4.03-9.39c-2.69-2.18-6.58-3.26-11.69-3.26
			h-13.7v25.39h13.7C1328.9,129.56,1332.8,128.46,1335.48,126.26z"/>
	</g>
</g>
<g>
	<g>
		<path class="st3" d="M391.67,184.21h21.36c5.86,0,11.03,1.21,15.52,3.63c4.49,2.42,7.98,5.78,10.48,10.08
			c2.5,4.3,3.75,9.14,3.75,14.51c0,5.37-1.25,10.21-3.75,14.51c-2.5,4.3-5.99,7.66-10.48,10.08c-4.49,2.42-9.66,3.63-15.52,3.63
			h-21.36V184.21z M412.87,239.11c5.64,0,10.6-1.14,14.87-3.43c4.27-2.28,7.58-5.45,9.91-9.51c2.34-4.06,3.51-8.64,3.51-13.74
			c0-5.1-1.17-9.69-3.51-13.74c-2.34-4.06-5.64-7.23-9.91-9.51c-4.27-2.28-9.23-3.43-14.87-3.43h-19.59v53.36H412.87z"/>
		<path class="st3" d="M513.87,184.21v56.42h-1.61v-52.96l-25.71,44.98h-0.97l-25.71-44.82v52.8h-1.61v-56.42h1.37l26.44,46.27
			l26.44-46.27H513.87z"/>
		<path class="st3" d="M543.53,237.17c-4.41-2.47-7.87-5.87-10.4-10.2c-2.53-4.33-3.79-9.18-3.79-14.55
			c0-5.37,1.26-10.22,3.79-14.55c2.52-4.33,5.99-7.72,10.4-10.2c4.41-2.47,9.32-3.71,14.75-3.71c3.81,0,7.38,0.6,10.68,1.81
			c3.3,1.21,6.14,3,8.5,5.36l-0.97,1.13c-4.73-4.51-10.8-6.77-18.22-6.77c-5.11,0-9.74,1.18-13.9,3.55
			c-4.17,2.37-7.44,5.6-9.83,9.71c-2.39,4.11-3.59,8.67-3.59,13.66s1.2,9.55,3.59,13.66c2.39,4.11,5.67,7.35,9.83,9.71
			c4.16,2.37,8.8,3.55,13.9,3.55c7.36,0,13.43-2.28,18.22-6.85l0.97,1.13c-2.37,2.37-5.21,4.17-8.54,5.4
			c-3.33,1.24-6.88,1.85-10.64,1.85C552.85,240.88,547.94,239.64,543.53,237.17z"/>
		<path class="st3" d="M599.63,237.17c-4.41-2.47-7.87-5.87-10.4-10.2c-2.53-4.33-3.79-9.18-3.79-14.55
			c0-5.37,1.26-10.22,3.79-14.55c2.52-4.33,5.99-7.72,10.4-10.2c4.41-2.47,9.32-3.71,14.75-3.71c3.81,0,7.38,0.6,10.68,1.81
			c3.3,1.21,6.14,3,8.5,5.36l-0.97,1.13c-4.73-4.51-10.8-6.77-18.22-6.77c-5.11,0-9.74,1.18-13.9,3.55
			c-4.17,2.37-7.44,5.6-9.83,9.71c-2.39,4.11-3.59,8.67-3.59,13.66s1.2,9.55,3.59,13.66c2.39,4.11,5.67,7.35,9.83,9.71
			c4.16,2.37,8.8,3.55,13.9,3.55c7.36,0,13.43-2.28,18.22-6.85l0.97,1.13c-2.37,2.37-5.21,4.17-8.54,5.4
			c-3.33,1.24-6.88,1.85-10.64,1.85C608.96,240.88,604.04,239.64,599.63,237.17z"/>
	</g>
</g>
</svg>
